# xmcd
#
# Track frame offsets:
#	150
#	17427
#	36937
#	55770
#	73020
#	103552
#	152235
#
# Disc length: 2560 seconds
# Revision: 0
# Processed by: cddbd v1.5.2PL0 Copyright (c) Steve Scherf et al.
# Submitted via: dBpowerAMP V12.0
#
DISCID=5209fe07
DTITLE=Gloria Estefan - Reach
DYEAR=1996
DGENRE=Pop
TTITLE0=Reach [Album Version]
TTITLE1=Reach [Love To Infinity’s Radio Master Mix]
TTITLE2=Reach [Love To Infinity’s Walk In The Park Radio Mix]
TTITLE3=Reach [Higher Radio Mix]
TTITLE4=Reach [Gold Medal Mix]
TTITLE5=Reach [Higher Club Mix (Vox Up)]
TTITLE6=Abriendo Puertas (Opening Doors) [Africuba Mix]
EXTD=
EXTT0=
EXTT1=
EXTT2=
EXTT3=
EXTT4=
EXTT5=
EXTT6=
PLAYORDER=
